<?xml version="1.0" standalone="no"?><!DOCTYPE svg PUBLIC "-//W3C//DTD SVG 1.1//EN" "http://www.w3.org/Graphics/SVG/1.1/DTD/svg11.dtd"><svg t="1747128128851" class="icon" viewBox="0 0 1024 1024" version="1.1" xmlns="http://www.w3.org/2000/svg" p-id="1626" xmlns:xlink="http://www.w3.org/1999/xlink" width="200" height="200"><path d="M444.086 849.11c-6.946 0.015-13.377-4.643-15.217-11.792-0.843-3.01-1.446-6.99-2.307-12.6-4.667-28.655-15.412-95.685-68.494-169.296-5.07-7.082-3.473-16.885 3.57-22.047 7.081-5.07 16.885-3.474 22.047 3.569 57.407 79.705 69.503 154.527 73.975 182.72 0.682 4.166 1.246 8.054 1.687 9.605 2.256 8.385-2.764 17.034-11.28 19.237-1.328 0.455-2.681 0.595-3.981 0.603z" fill="#333333" p-id="1627"></path><path d="M395.527 682.759l3.856 31.606-29.29-12.445zM421.629 732.733l3.856 31.606-29.291-12.445zM436.554 779.412l3.856 31.606-29.29-12.445z" fill="#333333" p-id="1628"></path><path d="M452.391 752.483l-8.759 30.551-22.098-22.885zM460.158 784.601l-8.72 30.643-22.19-22.845zM434.396 697.547l-6.07 31.257-24.009-20.988zM414.457 661.579l-6.11 31.164-24.061-20.856z" fill="#333333" p-id="1629"></path><path d="M484.525 736.562c25.244 16.986 59.485 10.382 76.564-14.9 16.987-25.245 30.88-90.023 5.637-107.01s-80.115 20.101-97.102 45.345c-17.079 25.283-10.382 59.486 14.9 76.565z" fill="#629F3B" p-id="1630"></path><path d="M515.194 764.282c-14.116 0.017-28.427-4.012-40.977-12.59-33.628-22.662-42.516-68.427-19.854-102.055 10.466-15.524 30.866-32.983 51.968-44.438 28.337-15.396 53.516-17.502 70.716-5.9 17.2 11.601 24.706 35.683 21.05 67.762-2.696 23.849-11.227 49.306-21.693 64.83-14.307 21.064-37.51 32.434-61.21 32.39z m-20.4-42.943c16.767 11.35 39.722 6.822 51.073-9.946 5.873-8.686 13.279-27.581 15.649-48.36 1.272-11.077 0.914-29.067-5.02-33.067-5.973-4.09-22.777 2.39-32.565 7.74-18.365 9.968-33.08 23.927-39.045 32.652-11.39 16.676-6.953 39.67 9.907 50.981z" fill="#333333" p-id="1631"></path><path d="M372.278 779.754c-5.317 29.959-33.853 50.002-63.905 44.724-29.959-5.316-86.207-40.32-80.89-70.28 5.316-29.959 70.111-43.666 100.07-38.35s50.042 33.946 44.725 63.906z" fill="#629F3B" p-id="1632"></path><path d="M317.97 843.761a81.488 81.488 0 0 1-12.745-1.107c-18.438-3.255-42.676-14.802-61.705-29.43-25.615-19.654-37.816-41.742-34.213-62.175 3.603-20.432 22.516-37.042 53.368-46.77 22.899-7.221 49.537-9.729 68.066-6.513 39.932 7.058 66.679 45.243 59.62 85.175-6.295 35.589-37.436 60.758-72.39 60.82z m-5.026-110.63c-10.754 0.002-25.112 1.751-39.19 6.206-10.647 3.325-26.982 10.91-28.189 18.049-1.206 7.139 11.447 19.801 20.3 26.581 16.593 12.729 35.33 20.528 45.657 22.336 19.947 3.483 39.059-9.844 42.634-29.83 3.483-19.946-9.844-39.058-29.83-42.633-2.98-0.365-6.904-0.654-11.382-0.71z" fill="#333333" p-id="1633"></path><path d="M391.865 315.06l51.303 120.862c35.126 82.753 3.042 175.568-71.703 207.295-74.745 31.728-163.799-9.667-198.926-92.42l-51.303-120.863" fill="#E2113C" p-id="1634"></path><path d="M318.657 672.368c-23.255-0.015-46.767-5.243-69.368-15.747-41.675-19.355-75.024-54.412-93.779-98.596l-51.303-120.862a18.352 18.352 0 0 1 9.748-24.127 18.352 18.352 0 0 1 24.127 9.748l51.303 120.862c15.199 35.808 41.98 64.092 75.422 79.663 32.748 15.214 68.079 16.295 99.376 3.01 65.264-27.703 93.15-109.936 62.047-183.208L374.927 322.25a18.352 18.352 0 0 1 9.748-24.127 18.352 18.352 0 0 1 24.127 9.748l51.303 120.862c18.755 44.185 20.807 92.526 5.78 135.95-15.254 44.171-46.308 77.993-87.27 95.38-19.2 8.259-39.527 12.325-59.958 12.306z" fill="#333333" p-id="1635"></path><path d="M391.193531 313.764667a73.5 147 67 1 0-270.628427 114.874952 73.5 147 67 1 0 270.628427-114.874952Z" fill="#F53152" p-id="1636"></path><path d="M190.228115 478.323759c-3.715813-0.052271-7.339576-0.143616-10.910361-0.366084-38.293892-2.430606-65.1862-17.414055-75.696867-42.175636-10.54974-24.853631-2.646965-54.606717 22.244849-83.749428C147.856993 326.293835 181.210945 303.010495 219.964199 286.560715c38.753254-16.449781 78.632416-24.360689 112.462826-22.208169 38.293892 2.430606 65.1862 17.414055 75.696867 42.175636 10.54974 24.853631 2.646965 54.606717-22.244849 83.749428-21.991257 25.738776-55.345209 49.022116-94.098463 65.471897-34.610982 14.69149-70.143882 22.604333-101.552465 22.574252zM234.343104 320.435293c-33.598427 14.261686-62.160474 33.990079-80.526034 55.473938-14.937869 17.530261-21.063355 34.578969-16.413655 45.532976 4.688774 11.046058 21.168634 18.390729 44.155565 19.822868 28.211985 1.712864 62.244268-5.128461 95.842695-19.390147s62.160474-33.990079 80.526035-55.473937c14.937869-17.530261 21.063355-34.578969 16.413654-45.532976-4.688774-11.046058-21.168634-18.390729-44.155564-19.822869-28.251058-1.804914-62.244268 5.128461-95.842696 19.390147z" fill="#333333" p-id="1637"></path><path d="M345.685 398.214c-15.864-37.373-59.004-54.802-96.376-38.939s-54.802 59.004-38.939 96.376" fill="#FFCB2C" p-id="1638"></path><path d="M210.346 474.021c-7.17 0.002-13.943-4.184-16.913-11.18-19.81-46.67 2.017-100.693 48.686-120.503 22.553-9.573 47.567-9.762 70.344-0.636 22.815 9.218 40.547 26.678 50.159 49.322a18.352 18.352 0 0 1-9.748 24.127 18.352 18.352 0 0 1-24.127-9.748c-11.878-27.983-44.265-41.068-72.249-29.19-27.983 11.878-41.068 44.266-29.19 72.249a18.352 18.352 0 0 1-9.748 24.127c-2.432 0.923-4.837 1.401-7.214 1.432z" fill="#333333" p-id="1639"></path><path d="M190.228 478.324c-3.716-0.052-7.34-0.144-10.91-0.366-38.294-2.43-65.186-17.414-75.697-42.176-10.55-24.853-2.647-54.607 22.245-83.75 21.991-25.738 55.345-49.021 94.098-65.471 38.753-16.45 78.633-24.36 112.463-22.208 38.294 2.43 65.186 17.414 75.697 42.175 10.55 24.854 2.647 54.607-22.245 83.75-21.991 25.739-55.345 49.022-94.098 65.472-34.611 14.691-70.144 22.604-101.553 22.574z m44.115-157.889c-33.598 14.262-62.16 33.99-80.526 55.474-14.938 17.53-21.063 34.58-16.414 45.533 4.69 11.046 21.17 18.391 44.156 19.823 28.212 1.713 62.244-5.128 95.843-19.39 33.598-14.262 62.16-33.99 80.526-55.474 14.938-17.53 21.063-34.579 16.413-45.533-4.688-11.046-21.168-18.39-44.155-19.823-28.251-1.805-62.244 5.129-95.843 19.39z" fill="#333333" p-id="1640"></path><path d="M447.802 580.179c-9.454-0.007-17.557-7.322-18.259-16.91-1.574-19.32-11.16-34.48-29.33-46.322-61.878-40.329-195.672-27.425-247.154-9.484-9.57 3.303-20.058-1.697-23.36-11.268-3.302-9.57 1.698-20.058 11.269-23.36 60.46-21.101 205.497-34.649 279.31 13.324 27.604 17.94 43.482 43.574 45.923 74.151 0.806 10.087-6.736 18.938-16.915 19.782-0.5 0.103-0.946 0.076-1.484 0.087z" fill="#333333" p-id="1641"></path><path d="M471.454 917.394c-3.29 0.03-6.602-0.793-9.749-2.405-10.509-5.417-14.557-18.233-9.14-28.742 1.935-3.776 4.89-8.364 9.095-14.742 21.292-32.964 71.167-110.236 84.452-232.365 1.285-11.72 11.805-20.155 23.524-18.869 11.72 1.286 20.155 11.805 18.87 23.525-6.189 56.673-20.547 111.273-42.649 162.255-18.25 41.943-37.102 71.2-48.406 88.671-3.114 4.745-5.942 9.27-7.036 11.22-3.772 7.269-11.245 11.464-18.961 11.452z" fill="#333333" p-id="1642"></path><path d="M559.136 700.525l-24.73 35.27-18.273-39.078zM540.128 774.465l-24.73 35.27-18.273-39.078zM512.746 834.945l-24.636 35.303-18.273-39.078z" fill="#333333" p-id="1643"></path><path d="M553.192 822.22l-36.624 22.82-1.44-43.119zM531.806 861.603l-36.53 22.852-1.474-43.024zM584.954 750.556l-34.537 25.971-5.238-42.84zM597.318 696.221l-34.443 26.003-5.238-42.839z" fill="#333333" p-id="1644"></path><path d="M599.9 835.235c10.01 40.04 50.502 64.348 90.51 54.433S803.101 827.15 793.092 787.11s-98.753-52.3-138.793-42.29-64.41 50.374-54.4 90.414z" fill="#629F3B" p-id="1645"></path><path d="M672.373 913.177c-43.04-0.014-82.283-29.179-93.175-72.801-12.775-51.358 18.542-103.608 69.9-116.384 24.061-5.993 59.725-5.135 90.77 2.381 41.14 9.83 67.447 29.57 73.864 55.47 6.418 25.9-7.41 55.618-39.186 83.703-23.895 21.174-54.996 38.704-79.058 44.696-7.673 2.012-15.493 2.915-23.115 2.935zM620.6 830.095c7.087 28.563 36.105 45.958 64.668 38.872 14.234-3.56 39.405-16.151 61.13-35.323 14.772-13.105 28.641-30.962 25.993-41.393-2.554-10.398-23.145-19.708-42.39-24.326-28.143-6.729-56.295-6.058-70.53-2.498-13.79 3.5-25.513 12.05-32.78 24.249s-9.56 26.533-6.09 40.419z" fill="#333333" p-id="1646"></path><path d="M447.76 777.032c-32.539 25.39-79.412 19.615-104.835-12.83-25.295-32.506-50.187-118.706-17.775-144.034 32.539-25.39 110.017 19.586 135.407 52.124 25.517 32.477 19.742 79.35-12.797 104.74z" fill="#629F3B" p-id="1647"></path><path d="M401.981 814.15c-28.556 0.004-56.861-12.704-75.724-36.861-15.272-19.536-28.988-52.498-34.782-83.895-7.653-41.661-0.349-73.624 20.654-90.083 21.003-16.46 53.886-15.819 92.357 1.764 29.058 13.285 57.722 34.471 72.994 54.007 15.77 20.237 22.765 45.384 19.604 70.842-3.16 25.458-15.939 48.133-36.176 63.904-17.496 13.647-38.308 20.336-58.927 20.323z m-52.206-180.109c-4.776 0.048-8.769 0.894-11.382 2.956-8.414 6.621-8.574 29.2-5.002 48.62 5.316 28.483 17.4 53.901 26.425 65.47 18.145 23.17 51.72 27.328 74.89 9.182 11.25-8.712 18.364-21.386 20.052-35.506 1.69-14.12-2.157-28.135-10.902-39.29-9.025-11.568-30.764-29.524-57.116-41.453-12.309-5.72-26.592-10.003-36.965-9.979z" fill="#333333" p-id="1648"></path><path d="M888.517 327.223L830.63 495.336C791.009 610.406 674.63 674.72 570.623 638.907c-104.007-35.812-156.12-158.143-116.498-273.212l57.886-168.114" fill="#E2113C" p-id="1649"></path><path d="M630.112 673.775c-22.832-0.035-45.565-3.738-67.596-11.324-57.015-19.632-102.131-62.453-126.92-120.697-24.387-57.259-26.176-122.707-5.014-184.166l57.886-168.113c4.46-12.954 18.602-19.93 31.65-15.437 12.953 4.46 19.93 18.602 15.437 31.65l-57.886 168.113c-17.158 49.829-15.843 102.528 3.753 148.513 19.195 45.001 53.781 78.168 97.275 93.145 43.588 15.008 91.135 10.228 133.999-13.51 43.72-24.078 77.234-64.891 94.391-114.72l57.886-168.113c4.46-12.954 18.602-19.93 31.65-15.437 12.954 4.46 19.93 18.602 15.437 31.65l-57.886 168.113C832.98 564.996 791.308 615.373 736.84 645.48c-34.087 18.828-70.454 28.305-106.727 28.295z" fill="#333333" p-id="1650"></path><path d="M733.270174 166.302975a199.1 99.6 19 1 0-64.853177 188.3473 199.1 99.6 19 1 0 64.853177-188.3473Z" fill="#F53152" p-id="1651"></path><path d="M780.753998 399.686249c-37.632393-0.0549-79.209267-7.390669-120.339325-21.552883-53.894559-18.557385-101.17909-46.789868-133.271204-79.521294-36.413433-37.07495-49.907516-76.517056-38.024279-111.028484s46.799705-57.284444 98.352058-64.176108c45.440409-6.034836 100.08278 0.828927 153.977339 19.386312C795.248594 161.31862 842.627677 189.58366 874.719791 222.315085c36.413433 37.07495 49.907516 76.517056 37.991721 111.123036-11.883238 34.511428-46.799705 57.284444-98.352057 64.176108-10.734257 1.380478-21.967594 2.060299-33.605457 2.07202zM621.314063 171.019599c-9.518928 0.000994-18.600773 0.575537-27.340086 1.691071-30.937922 4.153909-52.555753 15.641703-57.829957 30.959104-11.459999 33.282254 46.121193 94.885065 140.389395 127.34421 46.708618 16.083067 93.262813 22.171327 131.261316 17.169947 30.937922-4.153909 52.555753-15.641703 57.829956-30.959104 11.459999-33.282254-46.121193-94.885065-140.389394-127.34421-36.024258-12.404147-71.98066-18.862253-103.92123-18.861018z" fill="#333333" p-id="1652"></path><path d="M766.794 368.968c17.906-52.004-9.743-108.694-61.747-126.6-52.003-17.907-108.694 9.743-126.6 61.747" fill="#FFCB2C" p-id="1653"></path><path d="M766.77 393.92a24.185 24.185 0 0 1-8.115-1.314c-12.954-4.46-19.93-18.602-15.437-31.65 6.479-18.816 5.225-39.131-3.517-57.053-8.741-17.923-23.977-31.419-42.793-37.897-18.816-6.48-39.131-5.225-57.053 3.517-17.923 8.74-31.418 23.977-37.897 42.793-4.46 12.954-18.602 19.93-31.65 15.437-12.954-4.46-19.93-18.602-15.437-31.65 10.809-31.392 33.196-56.786 63.067-71.355 29.87-14.57 63.665-16.576 95.056-5.767 31.391 10.809 56.786 33.196 71.355 63.067 14.569 29.87 16.576 63.665 5.767 95.056-3.327 10.277-12.974 16.791-23.347 16.815z" fill="#333333" p-id="1654"></path><path d="M780.754 399.686c-37.633-0.055-79.21-7.39-120.34-21.553-53.894-18.557-101.179-46.79-133.27-79.52-36.414-37.076-49.908-76.518-38.025-111.03s46.8-57.284 98.352-64.175c45.44-6.035 100.083 0.829 153.977 19.386 53.8 18.525 101.18 46.79 133.272 79.521 36.413 37.075 49.907 76.517 37.991 111.123-11.883 34.512-46.8 57.285-98.352 64.176-10.734 1.38-21.967 2.06-33.605 2.072zM621.314 171.02c-9.52 0-18.6 0.575-27.34 1.69-30.938 4.155-52.556 15.642-57.83 30.96-11.46 33.282 46.121 94.885 140.39 127.344 46.708 16.083 93.262 22.171 131.26 17.17 30.938-4.154 52.556-15.642 57.83-30.96 11.46-33.281-46.12-94.884-140.389-127.343-36.024-12.404-71.98-18.863-103.921-18.861z" fill="#333333" p-id="1655"></path><path d="M721.35 651.146c-5.281-0.02-10.641-1.654-15.16-5.114-10.893-8.298-13.015-23.942-4.59-34.896 15.954-20.84 20.048-44.708 12.39-73.15-11.069-41.57-47.387-91.515-102.215-140.535-54.42-48.67-108.31-80.446-137.788-92.817-12.661-5.311-18.62-19.949-13.309-32.61 5.311-12.66 19.854-18.652 32.61-13.308 79.931 33.551 238.22 151.3 268.898 266.462 11.497 43.091 4.207 83.309-20.974 116.202-4.966 6.435-12.367 9.809-19.862 9.766z" fill="#333333" p-id="1656"></path></svg>